<svg xmlns="http://www.w3.org/2000/svg" xmlns:xlink="http://www.w3.org/1999/xlink" width="33.698" height="40.812" viewBox="0 0 33.698 40.812">
  <defs>
    <style>
      .cls-1 {
        fill: none;
      }

      .cls-2 {
        clip-path: url(#clip-path);
      }

      .cls-3 {
        fill: #272f33;
      }
    </style>
    <clipPath id="clip-path">
      <rect class="cls-1" width="33.698" height="40.812"/>
    </clipPath>
  </defs>
  <g id="Symbol_13_2" data-name="Symbol 13 – 2" class="cls-2">
    <path id="Pfad_90" data-name="Pfad 90" class="cls-3" d="M534.545,130.167H517.989a.842.842,0,0,0,0,1.684h16.556a.842.842,0,0,0,0-1.684Z" transform="translate(-513.421 -125.77)"/>
    <path id="Pfad_91" data-name="Pfad 91" class="cls-3" d="M519.682,139h-1.694a.842.842,0,0,0,0,1.684h1.694a.842.842,0,0,0,0-1.684Z" transform="translate(-513.421 -130.211)"/>
    <path id="Pfad_92" data-name="Pfad 92" class="cls-3" d="M529.626,149.517h9.533c.307,0,.556-.377.556-.842s-.249-.842-.556-.842h-9.533c-.307,0-.556.377-.556.842S529.319,149.517,529.626,149.517Z" transform="translate(-519.416 -134.652)"/>
    <path id="Pfad_93" data-name="Pfad 93" class="cls-3" d="M540.539,139H529.912a.842.842,0,1,0,0,1.684h10.627a.842.842,0,0,0,0-1.684Z" transform="translate(-519.416 -130.211)"/>
    <path id="Pfad_94" data-name="Pfad 94" class="cls-3" d="M519.682,147.833h-1.694a.842.842,0,0,0,0,1.684h1.694a.842.842,0,0,0,0-1.684Z" transform="translate(-513.421 -134.652)"/>
    <path id="Pfad_95" data-name="Pfad 95" class="cls-3" d="M519.682,156.666h-1.694a.842.842,0,0,0,0,1.684h1.694a.842.842,0,0,0,0-1.684Z" transform="translate(-513.421 -139.093)"/>
    <path id="Pfad_96" data-name="Pfad 96" class="cls-3" d="M519.682,165.5h-1.694a.842.842,0,1,0,0,1.684h1.694a.842.842,0,0,0,0-1.684Z" transform="translate(-513.421 -143.535)"/>
    <path id="Pfad_97" data-name="Pfad 97" class="cls-3" d="M519.682,174.332h-1.694a.842.842,0,0,0,0,1.684h1.694a.842.842,0,0,0,0-1.684Z" transform="translate(-513.421 -147.975)"/>
    <path id="Pfad_98" data-name="Pfad 98" class="cls-3" d="M519.682,183.166h-1.694a.842.842,0,1,0,0,1.684h1.694a.842.842,0,0,0,0-1.684Z" transform="translate(-513.421 -152.417)"/>
    <path id="Pfad_99" data-name="Pfad 99" class="cls-3" d="M529.529,158.35H537.4c.254,0,.459-.377.459-.842s-.206-.842-.459-.842h-7.872c-.254,0-.459.377-.459.842S529.275,158.35,529.529,158.35Z" transform="translate(-519.416 -139.093)"/>
    <path id="Pfad_100" data-name="Pfad 100" class="cls-3" d="M529.595,167.184h8.984c.289,0,.525-.377.525-.842s-.235-.842-.525-.842h-8.984c-.29,0-.525.377-.525.842S529.3,167.184,529.595,167.184Z" transform="translate(-519.416 -143.535)"/>
    <path id="Pfad_101" data-name="Pfad 101" class="cls-3" d="M529.686,176.016h10.543c.339,0,.615-.377.615-.842s-.276-.842-.615-.842H529.686c-.34,0-.615.377-.615.842S529.345,176.016,529.686,176.016Z" transform="translate(-519.416 -147.975)"/>
    <path id="Pfad_102" data-name="Pfad 102" class="cls-3" d="M540.542,183.166H529.7c-.349,0-.632.376-.632.842s.283.842.632.842h10.84c.35,0,.633-.377.633-.842S540.892,183.166,540.542,183.166Z" transform="translate(-519.416 -152.417)"/>
    <path id="Pfad_103" data-name="Pfad 103" class="cls-3" d="M543.352,129.861a.812.812,0,0,0-.016-.164h0a.864.864,0,0,0-.073-.2c-.008-.016-.016-.031-.025-.047a.839.839,0,0,0-.132-.179l-7.694-7.694a.833.833,0,0,0-.178-.132l-.049-.026a.852.852,0,0,0-.2-.073h0a.83.83,0,0,0-.162-.016H513.576a3.926,3.926,0,0,0-3.922,3.922v32.969a3.926,3.926,0,0,0,3.922,3.922H539.43a3.922,3.922,0,0,0,3.9-3.565c.007,0,.015-.005.023-.006Zm-7.694-5.661,4.819,4.819H537.9a2.24,2.24,0,0,1-2.238-2.238Zm3.772,36.254H513.576a2.24,2.24,0,0,1-2.238-2.238V125.247a2.24,2.24,0,0,1,2.238-2.238h20.4v3.772A3.926,3.926,0,0,0,537.9,130.7h3.772v27.513A2.24,2.24,0,0,1,539.43,160.454Z" transform="translate(-509.654 -121.325)"/>
  </g>
</svg>
