<svg xmlns="http://www.w3.org/2000/svg" xmlns:xlink="http://www.w3.org/1999/xlink" width="45.11" height="45.7" viewBox="0 0 45.11 45.7">
  <defs>
    <clipPath id="clip-path">
      <rect width="45.11" height="45.7" fill="none"/>
    </clipPath>
  </defs>
  <g id="Symbol_17" data-name="Symbol 17" clip-path="url(#clip-path)">
    <path id="Path_211" data-name="Path 211" d="M442.629,253.446a4.642,4.642,0,0,0-1.492-3.738c-2.483-2.028-7.28-.431-12.358,1.262-2.954.982-5.743,1.909-7.58,1.909s-4.6-.92-7.538-1.9c-3.451-1.148-6.71-2.233-9.214-2.233h0a4.826,4.826,0,0,0-3.218.986,4.576,4.576,0,0,0-1.462,3.694v22.58c0,8.928,6.348,16.192,14.15,16.192h14.567c7.8,0,14.15-7.264,14.15-16.192V253.481Zm-16.2,8.145H415.962c-2.185,0-3.962,2.084-3.962,4.644l-.009,5.053H401.82v-2.461h.008V253.565a2.42,2.42,0,0,1,.223-1.2l.149-.321.288-.209c1.3-.944,3.969-.518,10.6,1.692,3.088,1.028,6.005,2,8.106,2s5.017-.97,8.114-2c6.622-2.2,9.294-2.63,10.59-1.69l.288.21.151.321a2.475,2.475,0,0,1,.221,1.248l0,17.675H430.386v-5.05C430.386,263.675,428.608,261.591,426.425,261.591Zm1.89,16.492a1.935,1.935,0,0,1-1.772,2l-10.606.006-.065-.005a1.972,1.972,0,0,1-1.8-2.072l0-11.8a1.918,1.918,0,0,1,1.773-1.972l.122-.006h10.553a1.964,1.964,0,0,1,1.8,2.056Zm-1.891,4.657c2.183,0,3.961-2.084,3.961-4.645v-4.616h10.171v.577l-.009,2.132c-.086,7.371-5.5,13.367-12.07,13.367H413.909c-6.57,0-11.986-6-12.071-13.367l-.018-.212v-2.5h10.171L412,278.1c0,2.561,1.777,4.645,3.962,4.645Z" transform="translate(-398.754 -246.742)" fill="#50bbcc"/>
  </g>
</svg>
