<svg xmlns="http://www.w3.org/2000/svg" width="42.854" height="43.588" viewBox="0 0 42.854 43.588">
  <path id="Path_228" data-name="Path 228" d="M33.285,354.062a18.039,18.039,0,0,0-9.531,1.761,18.328,18.328,0,0,0-9.174-1.792l-.29-1.106a1.415,1.415,0,0,0-2.736,0l-.528,2.012A12.4,12.4,0,0,0,6.1,358.89a14.2,14.2,0,0,0-1.662,2.75l-2.174.571a1.414,1.414,0,0,0,0,2.736l1.215.319c-.29,3.752,1.542,7,3.03,9.615a24.844,24.844,0,0,1,1.371,2.624,29.162,29.162,0,0,1,1.774,10.059c.19,4.06.368,7.9,4.805,7.9,4.228,0,7.608-6.755,7.861-15.712V379.7a1.421,1.421,0,1,1,2.842,0,.876.876,0,0,0,.021.2c.287,8.87,3.664,15.558,7.854,15.558,4.437,0,4.615-3.835,4.805-7.906a29.13,29.13,0,0,1,1.774-10.047,25.034,25.034,0,0,1,1.371-2.627c2.277-4,5.394-9.477.409-15.989A11.842,11.842,0,0,0,33.285,354.062Zm5.77,19.717a26.2,26.2,0,0,0-1.495,2.879,30.966,30.966,0,0,0-1.94,10.8c-.215,4.6-.5,5.771-2.578,5.771-2.539,0-5.408-5.451-5.633-13.566a.906.906,0,0,0-.04-.247,3.642,3.642,0,0,0-7.273.259c-.228,8.108-3.1,13.554-5.633,13.554-2.082,0-2.363-1.168-2.578-5.77a31,31,0,0,0-1.939-10.8,26.606,26.606,0,0,0-1.5-2.88c-1.368-2.405-2.851-5.011-2.765-7.934l3.939,1.033,1.93,7.355a1.414,1.414,0,0,0,2.736,0l1.929-7.355,7.356-1.93a1.414,1.414,0,0,0,0-2.736l-7.355-1.93-1.06-4.042a15.187,15.187,0,0,1,6.19,1.025,24.469,24.469,0,0,1,2.351,1,28.038,28.038,0,0,1,4.43,2.689,1.112,1.112,0,0,0,1.564-.187,1.116,1.116,0,0,0-.186-1.565,27.38,27.38,0,0,0-3.094-2.032,14.515,14.515,0,0,1,6.6-.9,9.693,9.693,0,0,1,6.617,3.971c4.087,5.339,1.61,9.693-.576,13.533ZM6.109,363.508l4.543-1.193a1.416,1.416,0,0,0,1.006-1.005l1.229-4.682.064-.018,1.233,4.7a1.417,1.417,0,0,0,1.009,1.009L20,363.579l-4.811,1.262a1.416,1.416,0,0,0-1.01,1.01l-1.263,4.811-1.262-4.813a1.419,1.419,0,0,0-1.009-1.008l-4.582-1.2C6.082,363.6,6.095,363.551,6.109,363.508Zm3.515-3.227-2.174.57c.138-.2.267-.4.424-.606a11.007,11.007,0,0,1,2.365-2.308Z" transform="translate(-1.213 -351.871)" fill="#50bbcc"/>
</svg>
