<svg xmlns="http://www.w3.org/2000/svg" width="44.885" height="43.5" viewBox="0 0 44.885 43.5">
  <g id="Group_655" data-name="Group 655" transform="translate(-98.001 -351.834)">
    <g id="Path_212" data-name="Path 212">
      <path id="Path_221" data-name="Path 221" d="M127.172,388.742H113.729a1.167,1.167,0,0,0-.08,2.332h13.522a1.167,1.167,0,0,0,0-2.332Z" fill="#50bbcc"/>
    </g>
    <g id="Path_213" data-name="Path 213">
      <path id="Path_222" data-name="Path 222" d="M129.081,384.477a1.214,1.214,0,0,0-.241,0H112.061a1.15,1.15,0,0,0-.861.251,1.172,1.172,0,0,0,.735,2.086.561.561,0,0,0,.1-.006h16.791a1.172,1.172,0,0,0,.256-2.33Z" fill="#50bbcc"/>
    </g>
    <g id="Path_214" data-name="Path 214">
      <path id="Path_223" data-name="Path 223" d="M126.214,393H114.689a1.167,1.167,0,1,0-.074,2.333h11.6a1.167,1.167,0,0,0,0-2.333Z" fill="#50bbcc"/>
    </g>
    <g id="Group_671" data-name="Group 671">
      <path id="Path_224" data-name="Path 224" d="M134.414,382.064H106.473a8.471,8.471,0,1,1,0-16.943h27.941a8.471,8.471,0,1,1,0,16.943Zm-27.941-14.943a6.471,6.471,0,1,0,0,12.943h27.941a6.471,6.471,0,1,0,0-12.943Z" fill="#50bbcc"/>
    </g>
    <g id="Path_212-2" data-name="Path 212">
      <path id="Path_225" data-name="Path 225" d="M128.3,357.294a1.168,1.168,0,0,0-1.129-1.2H113.649a1.167,1.167,0,0,0,.08,2.332h13.443A1.17,1.17,0,0,0,128.3,357.294Z" fill="#50bbcc"/>
    </g>
    <g id="Path_213-2" data-name="Path 213">
      <path id="Path_226" data-name="Path 226" d="M129.082,362.69a1.172,1.172,0,0,0-.256-2.33H112.035a.839.839,0,0,0-.1-.006,1.172,1.172,0,0,0-.735,2.086,1.146,1.146,0,0,0,.861.251H128.84a1.079,1.079,0,0,0,.241,0Z" fill="#50bbcc"/>
    </g>
    <g id="Path_214-2" data-name="Path 214">
      <path id="Path_227" data-name="Path 227" d="M127.344,353.034a1.168,1.168,0,0,0-1.129-1.2h-11.6a1.167,1.167,0,1,0,.074,2.333h11.525A1.171,1.171,0,0,0,127.344,353.034Z" fill="#50bbcc"/>
    </g>
  </g>
</svg>
