<svg xmlns="http://www.w3.org/2000/svg" width="21.936" height="21.938" viewBox="0 0 21.936 21.938">
    <defs>
        <style>
            .cls-1{fill:#f6f6f6;stroke:#272f33}
        </style>
    </defs>
    <g id="Gruppe_443" data-name="Gruppe 443" transform="translate(-271.514 -326.299)">
        <g id="Gruppe_440" data-name="Gruppe 440" transform="translate(272.014 326.799)">
            <path id="Pfad_137" d="M292.611 344.364l-3.97-3.97a.314.314 0 0 0-.444 0l-.318.318-1.339-1.339a8.013 8.013 0 1 0-1.959 1.955l1.341 1.341-.318.318a.315.315 0 0 0 0 .445l3.971 3.97a1.154 1.154 0 0 0 1.63 0l1.406-1.405a1.153 1.153 0 0 0 0-1.631zm-17.817-4.369a7.362 7.362 0 1 1 10.411 0 7.37 7.37 0 0 1-10.41 0zm10.3.951a7.872 7.872 0 0 0 1.068-1.066l1.276 1.276-1.068 1.068zm7.077 4.6l-1.406 1.406a.526.526 0 0 1-.741 0l-3.748-3.748 2.147-2.147 3.748 3.748a.523.523 0 0 1 0 .741z" class="cls-1" data-name="Pfad 137" transform="translate(-272.014 -326.799)"/>
        </g>
    </g>
</svg>
