<svg xmlns="http://www.w3.org/2000/svg" xmlns:xlink="http://www.w3.org/1999/xlink" width="44.7" height="44.7" viewBox="0 0 44.7 44.7">
  <defs>
    <clipPath id="clip-path">
      <rect width="44.7" height="44.7" fill="none"/>
    </clipPath>
  </defs>
  <g id="Symbol_18" data-name="Symbol 18" clip-path="url(#clip-path)">
    <g id="Group_655" data-name="Group 655" transform="translate(-450.136 -248.684)">
      <path id="Path_212" data-name="Path 212" d="M479.426,285.8H465.983a1.167,1.167,0,0,0-.08,2.332h13.522a1.168,1.168,0,0,0,1.129-1.2A1.17,1.17,0,0,0,479.426,285.8Z" fill="#50bbcc"/>
      <path id="Path_213" data-name="Path 213" d="M481.335,281.035a1.145,1.145,0,0,0-.241,0l-16.779,0a1.148,1.148,0,0,0-.861.251,1.172,1.172,0,0,0,.735,2.086.7.7,0,0,0,.1-.006h16.791a1.172,1.172,0,1,0,.256-2.33Z" fill="#50bbcc"/>
      <path id="Path_214" data-name="Path 214" d="M478.468,290.559H466.943a1.167,1.167,0,1,0-.074,2.333h11.6a1.168,1.168,0,0,0,1.129-1.2A1.171,1.171,0,0,0,478.468,290.559Z" fill="#50bbcc"/>
      <path id="Path_215" data-name="Path 215" d="M490.854,254.636l-.011-.016a12.327,12.327,0,0,0-8.346-4.826,18.721,18.721,0,0,0-9.476,1.639l-.3.138-.295-.125a20.23,20.23,0,0,0-7.819-1.761,12.315,12.315,0,0,0-10.021,4.95c-5.8,7.393-3.417,14.832.743,19.329,3.263,3.522,5.177,5,8.587,5.048l2.277.03-.074.052h10.747l4.624-.082c3.439-.036,5.36-1.518,8.627-5.05C494.274,269.462,496.649,262.022,490.854,254.636Zm-22.327-.858c-1.035.652-1.643,1.118-1.706,1.165a1.09,1.09,0,0,0-.206,1.549,1.189,1.189,0,0,0,1.648.2c.3-.225,7.477-5.489,13.955-4.682a10.1,10.1,0,0,1,6.8,4.007c6.369,8.121.573,15.138-.654,16.462-2.8,3.037-4.206,4.029-6.014,4.249l-.12.014-.4-.08-3.881-5.147a1.189,1.189,0,0,0-.936-.46h-8.631a1.178,1.178,0,0,0-.944.472l-3.957,5.248-.432-.055c-1.788-.227-3.187-1.219-5.986-4.243-3.387-3.658-5.583-10.174-.622-16.5a10.13,10.13,0,0,1,8.08-4.035l.188,0a14.888,14.888,0,0,1,3.6.472l1.705.426Zm.451,19.514h7.438l2.632,3.49h-12.7Z" fill="#50bbcc"/>
    </g>
  </g>
</svg>
