<svg xmlns="http://www.w3.org/2000/svg" width="36.5" height="40.757" viewBox="0 0 36.5 40.757">
  <defs>
    <style>
      .cls-1 {
        fill: #272f33;
        stroke: #272f33;
        stroke-width: 1.5px;
      }
    </style>
  </defs>
  <path id="Pfad_141" data-name="Pfad 141" class="cls-1" d="M64.85,338.733h-1.2V333.5a.935.935,0,0,0-.877-.982H59.493v-5.232a.936.936,0,0,0-.877-.983H40.608a.935.935,0,0,0-.876.983v5.232H36.452a.935.935,0,0,0-.877.982v5.233h-1.2a2.415,2.415,0,0,0-2.262,2.537v17.09a2.415,2.415,0,0,0,2.262,2.537h5.357v3.678a.936.936,0,0,0,.876.984H58.616a.936.936,0,0,0,.877-.984V360.9H64.85a2.415,2.415,0,0,0,2.262-2.537V341.27A2.415,2.415,0,0,0,64.85,338.733Zm-7.11,12.843v12.017H41.484V351.576Zm1.754,0h1.2a1.281,1.281,0,0,1,1.2,1.347v6.007h-2.4Zm5.865,6.783a.542.542,0,0,1-.509.57h-1.2v-6.007a3.153,3.153,0,0,0-2.954-3.314H38.53a3.153,3.153,0,0,0-2.954,3.314v6.007h-1.2a.543.543,0,0,1-.509-.57V346.914H65.358Zm-28.03-5.437a1.281,1.281,0,0,1,1.2-1.347h1.2v7.354h-2.4Zm0-14.192v-4.248h2.4v4.248Zm4.155,0V328.269H57.739v10.462Zm18.009,0v-4.248h2.4v4.248ZM33.865,341.27a.544.544,0,0,1,.509-.571H64.85a.543.543,0,0,1,.509.571v3.677H33.865Z" transform="translate(-31.362 -325.552)"/>
</svg>
