<svg xmlns="http://www.w3.org/2000/svg" width="35" height="39.257" viewBox="0 0 35 39.257">
    <defs>
        <style>
            .cls-1{fill:none}.cls-2{clip-path:url(#clip-path)}.cls-3{fill:#272f33}
        </style>
        <clipPath id="clip-path">
            <path d="M0 0h35v39.257H0z" class="cls-1"/>
        </clipPath>
    </defs>
    <g id="Symbol_15_2" class="cls-2" data-name="Symbol 15 – 2">
        <path id="Pfad_108" d="M64.85 338.733h-1.2V333.5a.935.935 0 0 0-.877-.982h-3.28v-5.232a.936.936 0 0 0-.877-.983H40.608a.935.935 0 0 0-.876.983v5.232h-3.28a.935.935 0 0 0-.877.982v5.233h-1.2a2.415 2.415 0 0 0-2.262 2.537v17.09a2.415 2.415 0 0 0 2.262 2.537h5.357v3.678a.936.936 0 0 0 .876.984h18.008a.936.936 0 0 0 .877-.984V360.9h5.357a2.415 2.415 0 0 0 2.262-2.537V341.27a2.415 2.415 0 0 0-2.262-2.537zm-7.11 12.843v12.017H41.484v-12.017zm1.754 0h1.2a1.281 1.281 0 0 1 1.2 1.347v6.007h-2.4zm5.865 6.783a.542.542 0 0 1-.509.57h-1.2v-6.007a3.153 3.153 0 0 0-2.954-3.314H38.53a3.153 3.153 0 0 0-2.954 3.314v6.007h-1.2a.543.543 0 0 1-.509-.57v-11.445h31.491zm-28.03-5.437a1.281 1.281 0 0 1 1.2-1.347h1.2v7.354h-2.4zm0-14.192v-4.248h2.4v4.248zm4.155 0v-10.461h16.255v10.462zm18.009 0v-4.248h2.4v4.248zm-25.628 2.54a.544.544 0 0 1 .509-.571H64.85a.543.543 0 0 1 .509.571v3.677H33.865z" class="cls-3" data-name="Pfad 108" transform="translate(-32.112 -326.302)"/>
        <path id="Pfad_109" d="M36.867 345.7a.876.876 0 1 0 .876.877.878.878 0 0 0-.876-.877z" class="cls-3" data-name="Pfad 109" transform="translate(-33.22 -330.07)"/>
        <path id="Pfad_110" d="M40.746 345.7a.876.876 0 1 0 .876.877.878.878 0 0 0-.876-.877z" class="cls-3" data-name="Pfad 110" transform="translate(-34.328 -330.07)"/>
        <path id="Pfad_111" d="M44.625 345.7a.876.876 0 1 0 .876.877.878.878 0 0 0-.876-.877z" class="cls-3" data-name="Pfad 111" transform="translate(-35.436 -330.07)"/>
    </g>
</svg>
