<svg xmlns="http://www.w3.org/2000/svg" width="42.213" height="32.632" viewBox="0 0 42.213 32.632">
  <g id="Group_669" data-name="Group 669" transform="translate(-245.246 -343.884)">
    <path id="Path_219" data-name="Path 219" d="M275.747,376.515c-2.149,0-3.685-1.981-5.172-3.9-1.277-1.646-2.6-3.346-4.04-3.414v.01l-.365-.01c-1.445.068-2.763,1.767-4.04,3.414-1.54,1.987-3.127,4.053-5.4,3.892-1.939-.127-3.831-1.881-5.955-5.52-3.667-6.283-5.526-11.051-5.526-14.172,0-2.745,2.222-8.988,7.575-11.677,2.826-1.421,7.247-2.164,13.513.721.02-.011.04-.022.06-.031,6.773-3.243,11.544-1.813,14.356-.042,4.577,2.883,6.709,8.285,6.709,11.029,0,3.123-1.859,7.891-5.526,14.172-2.124,3.639-4.016,5.393-5.954,5.52C275.9,376.512,275.823,376.515,275.747,376.515Zm-9.281-9.318c2.439,0,4.161,2.221,5.689,4.193,1.22,1.573,2.477,3.192,3.693,3.121.812-.053,2.227-.883,4.358-4.532,4.341-7.437,5.253-11.264,5.253-13.164,0-1.987-1.694-6.766-5.774-9.337-3.136-1.975-6.852-2.123-11.062-.446a42.615,42.615,0,0,1,4.484,2.943,1,1,0,0,1-1.194,1.6c-7.24-5.388-13.531-7-18.195-4.655a12.8,12.8,0,0,0-6.472,9.89c0,1.9.912,5.724,5.254,13.164,2.13,3.649,3.545,4.479,4.357,4.532,1.2.089,2.473-1.547,3.693-3.121,1.552-2,3.292-4.267,5.8-4.191Z" fill="#50bbcc"/>
  </g>
</svg>
