<svg xmlns="http://www.w3.org/2000/svg" width="42.863" height="44.067" viewBox="0 0 42.863 44.067">
  <g id="Group_672" data-name="Group 672" transform="translate(-51.022 -301.929)">
    <path id="Path_229" data-name="Path 229" d="M91.069,307.132c-4.271-5.579-10.916-6.71-18.754-3.206a23.76,23.76,0,0,0-5.458-1.736,1.058,1.058,0,0,0-1.244,1.04v6.447h-4.23a1.057,1.057,0,0,0-1.057,1.057v5.287H52.081a1.057,1.057,0,0,0-1.034,1.286,24.571,24.571,0,0,0,2.962,6.767,27,27,0,0,1,1.473,2.819,31.278,31.278,0,0,1,1.905,10.793c.2,4.273.388,8.31,5,8.31,4.446,0,8-7.161,8.267-16.662v-.046a1.653,1.653,0,0,1,3.306,0,1,1,0,0,0,.022.213c.306,9.416,3.841,16.495,8.26,16.495,4.612,0,4.8-4.036,5-8.309a31.29,31.29,0,0,1,1.906-10.794,27.115,27.115,0,0,1,1.473-2.821C93.036,319.831,96.342,314.021,91.069,307.132Zm-1.68,1.285a14.29,14.29,0,0,1,.861,1.26H79.713v-5.288a1.053,1.053,0,0,0-.051-.309A10.58,10.58,0,0,1,89.389,308.417Zm-21.661-3.876a23.4,23.4,0,0,1,3.975,1.43,1.133,1.133,0,0,0,.227.117,1.058,1.058,0,0,0,.817-.034,22.753,22.753,0,0,1,4.852-1.672v5.3h-9.87Zm-5.287,7.251h9.165v4.229H62.441Zm26.343,11.235a28.406,28.406,0,0,0-1.591,3.061,33.008,33.008,0,0,0-2.062,11.5c-.222,4.756-.5,6.293-2.888,6.293-2.776,0-5.911-5.877-6.154-14.627a1.023,1.023,0,0,0-.043-.255,3.758,3.758,0,0,0-7.506.268c-.245,8.742-3.378,14.614-6.152,14.614-2.393,0-2.666-1.537-2.888-6.294a33.01,33.01,0,0,0-2.063-11.5,28.739,28.739,0,0,0-1.589-3.061,28.246,28.246,0,0,1-2.375-4.891h19.19a1.057,1.057,0,0,0,1.057-1.057v-5.287H91.259C92.74,316.067,90.664,319.724,88.784,323.027Z" fill="#50bbcc"/>
  </g>
</svg>
