<svg xmlns="http://www.w3.org/2000/svg" width="42.885" height="43.46" viewBox="0 0 42.885 43.46">
  <g id="Group_670" data-name="Group 670" transform="translate(-51.001 -351.996)">
    <path id="Path_220" data-name="Path 220" d="M92.383,352.966c-2.483-2.028-7.28-.431-12.358,1.262-2.954.982-5.743,1.909-7.58,1.909s-4.6-.92-7.538-1.9C61.456,353.089,58.2,352,55.693,352a4.829,4.829,0,0,0-3.218.986,4.579,4.579,0,0,0-1.462,3.694v22.58c0,8.928,6.348,16.192,14.15,16.192H79.73c7.8,0,14.15-7.264,14.15-16.192V356.739l0-.035A4.64,4.64,0,0,0,92.383,352.966Zm-.57,26.072H91.8l0,.408c-.086,7.371-5.5,13.367-12.07,13.367H65.155c-6.57,0-11.986-6-12.071-13.367l-.018-.212V360.811h.008v-3.988a2.421,2.421,0,0,1,.223-1.2l.149-.321.288-.209c1.3-.944,3.969-.518,10.6,1.692,3.088,1.028,6,2,8.106,2s5.017-.97,8.114-2c6.622-2.2,9.294-2.63,10.59-1.69l.288.21.151.321a2.472,2.472,0,0,1,.221,1.248v3.937h.009Z" fill="#50bbcc"/>
  </g>
</svg>
