<?xml version="1.0" encoding="utf-8"?>
<!-- Generator: Adobe Illustrator 16.0.0, SVG Export Plug-In . SVG Version: 6.00 Build 0)  -->
<!DOCTYPE svg PUBLIC "-//W3C//DTD SVG 1.1//EN" "http://www.w3.org/Graphics/SVG/1.1/DTD/svg11.dtd">
<svg version="1.1" id="Ebene_1" xmlns="http://www.w3.org/2000/svg" xmlns:xlink="http://www.w3.org/1999/xlink" x="0px" y="0px"
	 width="33.699px" height="40.813px" viewBox="0 0 33.699 40.813" enable-background="new 0 0 33.699 40.813" xml:space="preserve">
<g id="Symbol_13_2">
	<path id="Pfad_90" d="M21.125,4.397H4.568c-0.465,0-0.842,0.377-0.842,0.842s0.377,0.842,0.842,0.842h16.557
		c0.465,0,0.842-0.377,0.842-0.842S21.589,4.397,21.125,4.397L21.125,4.397z"/>
	<path id="Pfad_91" d="M6.261,8.789H4.567c-0.465,0-0.842,0.377-0.842,0.842c0,0.466,0.377,0.843,0.842,0.843h1.694
		c0.465,0,0.842-0.377,0.842-0.843C7.103,9.166,6.726,8.789,6.261,8.789z"/>
	<path id="Pfad_92" d="M10.21,14.865h9.534c0.307,0,0.555-0.377,0.555-0.842s-0.248-0.842-0.555-0.842H10.21
		c-0.307,0-0.556,0.377-0.556,0.842S9.903,14.865,10.21,14.865z"/>
	<path id="Pfad_93" d="M21.123,8.789H10.496c-0.465,0-0.842,0.377-0.842,0.842c0,0.466,0.377,0.843,0.842,0.843h10.626
		c0.465,0,0.842-0.377,0.842-0.843C21.964,9.166,21.587,8.789,21.123,8.789z"/>
	<path id="Pfad_94" d="M6.261,13.181H4.567c-0.465,0-0.842,0.377-0.842,0.842s0.377,0.842,0.842,0.842h1.694
		c0.465,0,0.842-0.377,0.842-0.842S6.726,13.181,6.261,13.181z"/>
	<path id="Pfad_95" d="M6.261,17.573H4.567c-0.465,0-0.842,0.377-0.842,0.842s0.377,0.842,0.842,0.842h1.694
		c0.465,0,0.842-0.377,0.842-0.842S6.726,17.573,6.261,17.573z"/>
	<path id="Pfad_96" d="M6.261,21.965H4.567c-0.465,0-0.842,0.377-0.842,0.843c0,0.465,0.377,0.842,0.842,0.842h1.694
		c0.465,0,0.842-0.377,0.842-0.842C7.103,22.342,6.726,21.965,6.261,21.965z"/>
	<path id="Pfad_97" d="M6.261,26.357H4.567c-0.465,0-0.842,0.377-0.842,0.842s0.377,0.842,0.842,0.842h1.694
		c0.465,0,0.842-0.377,0.842-0.842S6.726,26.357,6.261,26.357z"/>
	<path id="Pfad_98" d="M6.261,30.749H4.567c-0.465,0-0.842,0.377-0.842,0.842c0,0.466,0.377,0.843,0.842,0.843h1.694
		c0.465,0,0.842-0.377,0.842-0.843C7.103,31.126,6.726,30.749,6.261,30.749z"/>
	<path id="Pfad_99" d="M10.113,19.257h7.871c0.254,0,0.459-0.377,0.459-0.842s-0.206-0.842-0.459-0.842h-7.872
		c-0.254,0-0.459,0.377-0.459,0.842S9.859,19.257,10.113,19.257z"/>
	<path id="Pfad_100" d="M10.179,23.649h8.985c0.289,0,0.524-0.377,0.524-0.842c0-0.466-0.235-0.843-0.524-0.843h-8.985
		c-0.29,0-0.525,0.377-0.525,0.843C9.654,23.272,9.884,23.649,10.179,23.649z"/>
	<path id="Pfad_101" d="M10.27,28.041h10.543c0.339,0,0.614-0.377,0.614-0.842s-0.275-0.842-0.614-0.842H10.27
		c-0.34,0-0.615,0.377-0.615,0.842S9.929,28.041,10.27,28.041z"/>
	<path id="Pfad_102" d="M21.126,30.749H10.284c-0.349,0-0.632,0.376-0.632,0.842c0,0.467,0.283,0.843,0.632,0.843h10.84
		c0.35,0,0.633-0.377,0.633-0.843C21.757,31.126,21.476,30.749,21.126,30.749L21.126,30.749z"/>
	<path id="Pfad_103" d="M33.699,8.536c0-0.055-0.006-0.11-0.017-0.164c-0.017-0.069-0.04-0.137-0.073-0.2
		c-0.008-0.016-0.016-0.031-0.025-0.047C33.548,8.059,33.503,8,33.453,7.946l-7.695-7.694C25.705,0.2,25.645,0.156,25.58,0.12
		l-0.049-0.025c-0.063-0.033-0.131-0.058-0.199-0.073c-0.054-0.011-0.107-0.017-0.162-0.017H3.922C1.757,0.008,0.002,1.761,0,3.927
		v32.969c0.002,2.165,1.757,3.92,3.922,3.922h25.854c2.026-0.003,3.716-1.548,3.899-3.565c0.008,0,0.016-0.005,0.023-0.006V8.536z
		 M26.003,2.875l4.82,4.819h-2.578c-1.234-0.001-2.236-1.003-2.238-2.238L26.003,2.875z M29.776,39.129H3.922
		c-1.235-0.001-2.237-1.002-2.238-2.237V3.922c0.001-1.235,1.002-2.236,2.238-2.237h20.4v3.771c0.004,2.165,1.76,3.918,3.924,3.919
		h3.772v27.514c0.001,1.236-1.002,2.24-2.239,2.24C29.778,39.129,29.777,39.129,29.776,39.129z"/>
</g>
</svg>
