<svg xmlns="http://www.w3.org/2000/svg" width="36.203" height="23.156" viewBox="0 0 36.203 23.156">
  <g id="Group_673" data-name="Group 673" transform="translate(-55.363 -403.491)">
    <path id="Path_230" data-name="Path 230" d="M72.41,425.335a13.587,13.587,0,0,1-6.3,1.312,10.293,10.293,0,0,1-7.813-3.078,11.213,11.213,0,0,1-2.937-8.078,11.763,11.763,0,0,1,3.3-8.687,11.309,11.309,0,0,1,8.352-3.313,13.7,13.7,0,0,1,5.391.922V408.1a9.622,9.622,0,0,0-5-1.344,7.847,7.847,0,0,0-5.9,2.328,8.555,8.555,0,0,0-2.258,6.219,8.156,8.156,0,0,0,2.11,5.9,7.339,7.339,0,0,0,5.547,2.2,9.935,9.935,0,0,0,5.5-1.5Z" fill="#50bbcc"/>
    <path id="Path_231" data-name="Path 231" d="M80.363,418.147v8.125h-3.7V403.866h6.8a9.009,9.009,0,0,1,5.984,1.8,6.269,6.269,0,0,1,2.125,5.063,6.991,6.991,0,0,1-2.219,5.343,8.422,8.422,0,0,1-6,2.078Zm0-11.218v8.187h2.406a5.321,5.321,0,0,0,3.641-1.109,3.959,3.959,0,0,0,1.25-3.125q0-3.952-4.594-3.953Z" fill="#50bbcc"/>
  </g>
</svg>
