<svg xmlns="http://www.w3.org/2000/svg" width="34.992" height="33.207" viewBox="0 0 34.992 33.207">
    <defs>
        <style>
            .cls-1{fill:none}.cls-2{clip-path:url(#clip-path)}.cls-3{fill:#62c6d6;stroke:#62c6d6;stroke-width:.5px}
        </style>
        <clipPath id="clip-path">
            <path d="M0 0h34.993v33.207H0z" class="cls-1"/>
        </clipPath>
    </defs>
    <g id="Einstellungen" class="cls-2">
        <g id="Gruppe_560" data-name="Gruppe 560" transform="translate(3.037 1)">
            <path id="Pfad_198" d="M89.583 289.4a15.167 15.167 0 0 0-.659-4.979.679.679 0 0 0-.631-.481l-4.343-.11a.612.612 0 0 1-.522-.9l2.065-3.817a.674.674 0 0 0-.1-.784 15.362 15.362 0 0 0-3.987-3.06.67.67 0 0 0-.784.106l-3.149 2.991a.611.611 0 0 1-1.007-.268l-1.243-4.16a.677.677 0 0 0-.628-.483 15.324 15.324 0 0 0-4.982.662.677.677 0 0 0-.477.63l-.113 4.343a.612.612 0 0 1-.9.522l-3.823-2.065a.672.672 0 0 0-.783.1 15.432 15.432 0 0 0-3.054 3.992.675.675 0 0 0 .108.784l2.991 3.145a.612.612 0 0 1-.268 1.008l-4.16 1.241a.673.673 0 0 0-.482.625 15.182 15.182 0 0 0 .662 4.984.678.678 0 0 0 .631.478l4.339.11a.613.613 0 0 1 .522.9l-2.065 3.821a.672.672 0 0 0 .1.784 15.489 15.489 0 0 0 3.986 3.061.676.676 0 0 0 .785-.106l3.149-2.992a.61.61 0 0 1 .422-.169.583.583 0 0 1 .158.021.609.609 0 0 1 .428.416l1.242 4.16a.677.677 0 0 0 .628.483c.138.007.267.007.4.007a.585.585 0 0 1 .065 0 15.657 15.657 0 0 0 4.519-.669.675.675 0 0 0 .48-.629l.114-4.346a.611.611 0 0 1 .9-.521l3.819 2.068a.678.678 0 0 0 .785-.1 15.446 15.446 0 0 0 3.05-3.991.671.671 0 0 0-.106-.783l-2.991-3.149a.612.612 0 0 1 .269-1.007l4.16-1.241a.673.673 0 0 0 .48-.632zm-1.785-.389l-3.968 1.182a.672.672 0 0 0-.471.521 9.418 9.418 0 0 1-.341 1.263.671.671 0 0 0 .149.684l2.853 3a.611.611 0 0 1 .076.745 14.035 14.035 0 0 1-1.627 2.128.61.61 0 0 1-.74.121l-3.642-1.972a.671.671 0 0 0-.707.038 9.223 9.223 0 0 1-1.13.657.672.672 0 0 0-.374.588l-.108 4.136a.612.612 0 0 1-.473.58c-.433.1-.878.179-1.319.24s-.891.1-1.338.114h-.022a.611.611 0 0 1-.586-.438l-1.182-3.964a.681.681 0 0 0-.521-.472 8.7 8.7 0 0 1-1.254-.338.653.653 0 0 0-.225-.04.667.667 0 0 0-.462.19l-3 2.857a.615.615 0 0 1-.746.076 14.251 14.251 0 0 1-2.125-1.63.614.614 0 0 1-.121-.739l1.967-3.643a.673.673 0 0 0-.035-.708 8.688 8.688 0 0 1-.658-1.123.671.671 0 0 0-.591-.383l-4.139-.105a.611.611 0 0 1-.58-.473q-.152-.655-.241-1.319c-.059-.442-.1-.889-.113-1.338a.611.611 0 0 1 .437-.607l3.968-1.182a.676.676 0 0 0 .471-.522 8.9 8.9 0 0 1 .339-1.26.672.672 0 0 0-.149-.686l-2.851-3a.611.611 0 0 1-.076-.746 14.1 14.1 0 0 1 1.633-2.129.614.614 0 0 1 .739-.121l3.643 1.968a.677.677 0 0 0 .7-.033 9.006 9.006 0 0 1 1.132-.655.674.674 0 0 0 .379-.591l.106-4.139a.611.611 0 0 1 .473-.58q.655-.152 1.319-.241c.442-.059.891-.1 1.338-.111a.587.587 0 0 1 .607.436l1.183 3.967a.679.679 0 0 0 .524.472 9.206 9.206 0 0 1 1.263.34.669.669 0 0 0 .684-.149l3-2.853a.607.607 0 0 1 .745-.076 14.15 14.15 0 0 1 2.124 1.628.612.612 0 0 1 .122.739l-1.97 3.64a.671.671 0 0 0 .034.7 9.217 9.217 0 0 1 .653 1.129.678.678 0 0 0 .592.382l4.138.105a.611.611 0 0 1 .58.47 13.6 13.6 0 0 1 .355 2.662.612.612 0 0 1-.439.608z" class="cls-3" data-name="Pfad 198" transform="translate(-58.639 -273.445)"/>
            <path id="Pfad_199" d="M74.936 285.621a3.6 3.6 0 0 0-3.551-3.117h-.009a3.591 3.591 0 0 0-.008 7.182 3.7 3.7 0 0 0 .482-.032 3.606 3.606 0 0 0 3.086-4.033zm-3.561 2.96a2.486 2.486 0 0 1 0-4.972h.012a2.475 2.475 0 0 1 2.453 2.161 2.488 2.488 0 0 1-2.464 2.811z" class="cls-3" data-name="Pfad 199" transform="translate(-55.785 -270.618)"/>
        </g>
    </g>
</svg>
