<svg xmlns="http://www.w3.org/2000/svg" width="35" height="34.999" viewBox="0 0 35 34.999">
    <defs>
        <style>
            .cls-1{fill:none}.cls-2{clip-path:url(#clip-path)}.cls-3{fill:#272f33}
        </style>
        <clipPath id="clip-path">
            <path d="M0 0h35v34.999H0z" class="cls-1"/>
        </clipPath>
    </defs>
    <g id="Symbol_12_2" class="cls-2" data-name="Symbol 12 – 2">
        <path id="Pfad_88" d="M416.6 176.1c-.175 0-.348 0-.52-.007a1.4 1.4 0 0 1-1.3-1l-1.351-4.531-3.429 3.252a1.4 1.4 0 0 1-1.627.22 17.587 17.587 0 0 1-4.5-3.454 1.4 1.4 0 0 1-.212-1.626l2.239-4.154-4.721-.12a1.4 1.4 0 0 1-1.3-.99 17.258 17.258 0 0 1-.749-5.638 1.4 1.4 0 0 1 1-1.3l4.528-1.349-3.253-3.421a1.4 1.4 0 0 1-.222-1.624 17.447 17.447 0 0 1 3.451-4.512 1.4 1.4 0 0 1 1.625-.212l4.158 2.245.123-4.724a1.4 1.4 0 0 1 .99-1.3 17.33 17.33 0 0 1 5.633-.748 1.4 1.4 0 0 1 1.3 1l1.352 4.531 3.425-3.255a1.4 1.4 0 0 1 1.623-.22 17.394 17.394 0 0 1 4.51 3.457 1.4 1.4 0 0 1 .21 1.624l-2.246 4.152 4.723.12a1.4 1.4 0 0 1 1.306.993 17.172 17.172 0 0 1 .747 5.632 1.4 1.4 0 0 1-1 1.3l-4.529 1.349 3.253 3.424a1.4 1.4 0 0 1 .221 1.625 17.514 17.514 0 0 1-3.449 4.511 1.4 1.4 0 0 1-1.627.213l-4.155-2.25-.123 4.726a1.4 1.4 0 0 1-.994 1.3 17.7 17.7 0 0 1-5.107.756zm-3.538-8.525a1.4 1.4 0 0 1 .47.081 8.825 8.825 0 0 0 1.268.344 1.405 1.405 0 0 1 1.076.975l1.286 4.312a15.06 15.06 0 0 0 2.763-.367l.117-4.5a1.4 1.4 0 0 1 .781-1.22 9.3 9.3 0 0 0 1.144-.669 1.4 1.4 0 0 1 1.459-.077l3.961 2.145a14.687 14.687 0 0 0 1.692-2.213l-3.1-3.266a1.4 1.4 0 0 1-.309-1.421 9.519 9.519 0 0 0 .346-1.278 1.4 1.4 0 0 1 .977-1.081l4.314-1.286a13.894 13.894 0 0 0-.115-1.391 14.07 14.07 0 0 0-.252-1.372l-4.5-.115a1.4 1.4 0 0 1-1.225-.789 9.237 9.237 0 0 0-.669-1.147 1.4 1.4 0 0 1-.07-1.45l2.143-3.959a14.6 14.6 0 0 0-2.211-1.694l-3.266 3.1a1.4 1.4 0 0 1-1.422.309 9.2 9.2 0 0 0-1.278-.345 1.4 1.4 0 0 1-1.081-.976l-1.287-4.316a14.606 14.606 0 0 0-2.762.367l-.116 4.5a1.4 1.4 0 0 1-.786 1.224 9.453 9.453 0 0 0-1.15.669 1.4 1.4 0 0 1-1.45.071l-3.963-2.14a14.6 14.6 0 0 0-1.692 2.213l3.1 3.261a1.4 1.4 0 0 1 .309 1.426 8.884 8.884 0 0 0-.343 1.276 1.4 1.4 0 0 1-.976 1.081l-4.315 1.286c.016.466.055.931.117 1.391s.145.918.25 1.372l4.5.115a1.4 1.4 0 0 1 1.225.79 8.792 8.792 0 0 0 .661 1.136 1.4 1.4 0 0 1 .076 1.459l-2.14 3.962a14.7 14.7 0 0 0 2.21 1.7l3.266-3.1a1.4 1.4 0 0 1 .964-.397zm19.649-8.475z" class="cls-3" data-name="Pfad 88" transform="translate(-399.117 -141.097)"/>
        <path id="Pfad_89" d="M419.4 166.845a5.59 5.59 0 1 1 5.553-6.326 5.6 5.6 0 0 1-4.805 6.277 5.7 5.7 0 0 1-.748.049zm.013-8.3a2.713 2.713 0 1 0 2.687 2.355 2.695 2.695 0 0 0-2.683-2.358z" class="cls-3" data-name="Pfad 89" transform="translate(-402.29 -143.26)"/>
    </g>
</svg>
