<svg xmlns="http://www.w3.org/2000/svg" width="35.37" height="50.484" viewBox="0 0 35.37 50.484">
    <defs>
        <style>
            .cls-1{fill:none}.cls-2{clip-path:url(#clip-path)}.cls-3{fill:#272f33}
        </style>
        <clipPath id="clip-path">
            <path d="M0 0h35.37v50.484H0z" class="cls-1"/>
        </clipPath>
    </defs>
    <g id="Symbol_14_2" class="cls-2" data-name="Symbol 14 – 2">
        <path id="Pfad_104" d="M390.568 284.407a4.98 4.98 0 0 0-3.415-2.025 7.372 7.372 0 0 0-3.735.642 7.365 7.365 0 0 0-3.734-.642 4.979 4.979 0 0 0-3.415 2.025c-2.094 2.736-.758 5.084.127 6.638a9.483 9.483 0 0 1 .506.966 10.758 10.758 0 0 1 .654 3.747c.072 1.536.161 3.448 2.273 3.448 1.9 0 3.348-2.722 3.455-6.473v-.033c0-.145.262-.145.262 0a.856.856 0 0 0 .009.088c.12 3.723 1.566 6.418 3.451 6.418 2.113 0 2.2-1.912 2.273-3.448a10.78 10.78 0 0 1 .654-3.746 9.632 9.632 0 0 1 .507-.966c.885-1.554 2.221-3.903.128-6.639zm-1.6 5.8a10.6 10.6 0 0 0-.6 1.159 12.331 12.331 0 0 0-.78 4.313c-.086 1.83-.21 1.83-.579 1.83-.567 0-1.67-1.66-1.758-4.834a.842.842 0 0 0-.025-.179 1.823 1.823 0 0 0-3.635.188c-.09 3.168-1.192 4.825-1.758 4.825-.368 0-.493 0-.578-1.83a12.308 12.308 0 0 0-.78-4.313 10.547 10.547 0 0 0-.6-1.159c-.819-1.438-1.665-2.925-.255-4.768a3.3 3.3 0 0 1 2.274-1.372 4.514 4.514 0 0 1 1.476.079 8.1 8.1 0 0 1 2.05.754 10.637 10.637 0 0 1 1.435.888.848.848 0 1 0 1.049-1.333 8.138 8.138 0 0 0-.428-.308 4.51 4.51 0 0 1 1.469-.081 3.3 3.3 0 0 1 2.279 1.373c1.406 1.843.56 3.329-.258 4.767z" class="cls-3" data-name="Pfad 104" transform="translate(-365.804 -265.318)"/>
        <path id="Pfad_105" d="M356.495 292.4v-37.575a.846.846 0 0 1 .279-.629l6.182-5.6a.849.849 0 0 1 1.418.629v48.787a.849.849 0 0 1-1.418.629l-6.182-5.605a.845.845 0 0 1-.279-.636zm1.7-37.2v36.825l4.485 4.066v-44.956z" class="cls-3" data-name="Pfad 105" transform="translate(-356.495 -248.371)"/>
        <path id="Pfad_106" d="M372.22 261.255h21.735a4.062 4.062 0 0 1 4.058 4.058v7.715a4.062 4.062 0 0 1-4.058 4.058.848.848 0 0 0-.849.848v19.2H372.22v1.7h21.735a.848.848 0 0 0 .848-.848V278.72a5.764 5.764 0 0 0 4.907-5.693v-7.715a5.761 5.761 0 0 0-5.755-5.754H372.22z" class="cls-3" data-name="Pfad 106" transform="translate(-364.341 -253.953)"/>
        <path id="Pfad_107" d="M413.9 277.9v-8.132a.849.849 0 0 1 1.7 0v8.132a.849.849 0 0 1-1.7 0z" class="cls-3" data-name="Pfad 107" transform="translate(-385.137 -258.621)"/>
    </g>
</svg>
