<svg xmlns="http://www.w3.org/2000/svg" xmlns:xlink="http://www.w3.org/1999/xlink" width="35" height="35" viewBox="0 0 35 35">
  <defs>
    <style>
      .cls-1, .cls-4 {
        fill: none;
      }

      .cls-2 {
        clip-path: url(#clip-path);
      }

      .cls-3 {
        fill: #62c6d6;
        stroke-width: 0.5px;
      }

      .cls-3, .cls-4 {
        stroke: #62c6d6;
      }

      .cls-4 {
        stroke-width: 2px;
      }

      .cls-5 {
        stroke: none;
      }
    </style>
    <clipPath id="clip-path">
      <rect class="cls-1" width="35" height="35"/>
    </clipPath>
  </defs>
  <g id="Button_Hilfestellung" class="cls-2">
    <path id="Pfad_1" data-name="Pfad 1" class="cls-3" d="M3.359-1.345a4.67,4.67,0,0,1-.173-.73,5.357,5.357,0,0,1-.076-.893,2.777,2.777,0,0,1,.276-1.25,5.17,5.17,0,0,1,.687-1.044,10.412,10.412,0,0,1,.9-.936q.487-.449.9-.909a5.189,5.189,0,0,0,.687-.963,2.268,2.268,0,0,0,.276-1.109,2.029,2.029,0,0,0-.2-.92,1.941,1.941,0,0,0-.547-.671,2.4,2.4,0,0,0-.8-.406,3.36,3.36,0,0,0-.963-.135A4.2,4.2,0,0,0,1.151-9.871v-1.9a6.37,6.37,0,0,1,3.431-1.039,5.385,5.385,0,0,1,1.548.216,3.809,3.809,0,0,1,1.272.644,3.03,3.03,0,0,1,.86,1.066,3.321,3.321,0,0,1,.314,1.482,3.456,3.456,0,0,1-.281,1.428,5.155,5.155,0,0,1-.709,1.152,9.139,9.139,0,0,1-.925.979q-.5.454-.925.9a4.961,4.961,0,0,0-.709.936,2.1,2.1,0,0,0-.281,1.071,3.2,3.2,0,0,0,.119.9,6.452,6.452,0,0,0,.238.687Zm.974,4.5a1.2,1.2,0,0,1-.844-.346,1.131,1.131,0,0,1-.357-.844,1.109,1.109,0,0,1,.357-.844,1.176,1.176,0,0,1,1.688,0,1.109,1.109,0,0,1,.357.844,1.131,1.131,0,0,1-.357.844A1.2,1.2,0,0,1,4.333,3.156Z" transform="translate(12.894 22.208)"/>
    <g id="Ellipse_19" data-name="Ellipse 19" class="cls-4">
      <ellipse class="cls-5" cx="17.5" cy="17.5" rx="17.5" ry="17.5"/>
      <ellipse class="cls-1" cx="17.5" cy="17.5" rx="16.5" ry="16.5"/>
    </g>
  </g>
</svg>
