<svg xmlns="http://www.w3.org/2000/svg" width="44.7" height="44.7" viewBox="0 0 44.7 44.7">
    <defs>
        <style>
            .cls-1{fill:none}.cls-2{clip-path:url(#clip-path)}.cls-3{fill:#62c6d6}
        </style>
        <clipPath id="clip-path">
            <path d="M0 0h44.7v44.7H0z" class="cls-1"/>
        </clipPath>
    </defs>
    <g id="Symbol_18_189" class="cls-2" data-name="Symbol 18 – 189">
        <g id="Gruppe_464" data-name="Gruppe 464" transform="translate(-161.168 -410.318)">
            <path id="Pfad_155" d="M190.2 447.429h-13.442a.917.917 0 1 0 0 1.833H190.2a.917.917 0 0 0 0-1.833z" class="cls-3" data-name="Pfad 155"/>
            <path id="Pfad_156" d="M191.889 442.666h-16.818a.922.922 0 1 0 0 1.833h16.818a.922.922 0 1 0 0-1.833z" class="cls-3" data-name="Pfad 156"/>
            <path id="Pfad_157" d="M189.242 452.192h-11.524a.917.917 0 1 0 0 1.833h11.524a.917.917 0 0 0 0-1.833z" class="cls-3" data-name="Pfad 157"/>
            <path id="Pfad_158" d="M201.441 416.173l-.394.308.378-.328a12.01 12.01 0 0 0-8.168-4.727 18.45 18.45 0 0 0-9.348 1.617l-.4.184-.4-.17a20.084 20.084 0 0 0-7.721-1.739 11.974 11.974 0 0 0-9.821 4.854c-5.7 7.27-3.361 14.584.73 19.005 3.212 3.467 5.091 4.923 8.407 4.968l3.063.041-.06.041h9.938l1.549-.036-.022-.015 3.1-.031c3.345-.035 5.23-1.494 8.446-4.969 4.082-4.421 6.425-11.735.723-19.003zm-8.281 22.187l-.16.019-.531-.107-3.936-5.22a.935.935 0 0 0-.741-.363h-8.626a.931.931 0 0 0-.748.372l-4.043 5.364-.576-.073c-1.858-.236-3.292-1.246-6.138-4.321-3.453-3.729-5.693-10.374-.638-16.822a10.352 10.352 0 0 1 8.47-4.132 15.087 15.087 0 0 1 3.66.479l2.274.568-1.984 1.248a23.653 23.653 0 0 0-1.69 1.155.84.84 0 0 0-.161 1.191.943.943 0 0 0 1.3.16c.075-.055 7.428-5.563 14.141-4.732a10.3 10.3 0 0 1 6.962 4.1c6.493 8.279.584 15.437-.666 16.787-2.848 3.087-4.29 4.099-6.169 4.327zm-13.525-3.935h7.689l3.008 3.99h-13.7z" class="cls-3" data-name="Pfad 158"/>
        </g>
    </g>
</svg>
