<svg xmlns="http://www.w3.org/2000/svg" width="33.255" height="33.255" viewBox="0 0 33.255 33.255">
    <defs>
        <style>
            .cls-1{fill:none}.cls-2{clip-path:url(#clip-path)}.cls-3{fill:#272f33}
        </style>
        <clipPath id="clip-path">
            <path d="M0 0h33.255v33.255H0z" class="cls-1"/>
        </clipPath>
    </defs>
    <g id="Komponente_27_1" class="cls-2" data-name="Komponente 27 – 1">
        <path id="Pfad_112" d="M299.519 501.477a16.628 16.628 0 1 0 16.627 16.623 16.646 16.646 0 0 0-16.627-16.623zm14.962 16.623a14.962 14.962 0 1 1-14.962-14.962 14.979 14.979 0 0 1 14.962 14.962z" class="cls-3" data-name="Pfad 112" transform="translate(-282.891 -501.477)"/>
        <path id="Pfad_113" d="M304.543 522.053l-5.727-4.648 5.806-5.133a2.416 2.416 0 0 0 .175-3.465 2.523 2.523 0 0 0-3.5-.17l-7.95 7.029a2.418 2.418 0 0 0 .079 3.7l7.951 6.455a2.514 2.514 0 0 0 3.485-.316 2.416 2.416 0 0 0-.323-3.453zm-.845 2.459a.981.981 0 0 1-1.352.12l-7.951-6.456a.884.884 0 0 1-.03-1.362l7.95-7.029a.98.98 0 0 1 1.356.064.883.883 0 0 1-.066 1.272l-6.484 5.733a.767.767 0 0 0 .025 1.17l6.43 5.219a.892.892 0 0 1 .332.614.878.878 0 0 1-.208.655z" class="cls-3" data-name="Pfad 113" transform="translate(-283.754 -500.559)"/>
    </g>
</svg>
