<svg xmlns="http://www.w3.org/2000/svg" width="45.11" height="45.7" viewBox="0 0 45.11 45.7">
    <defs>
        <style>
            .cls-1{fill:none}.cls-2{clip-path:url(#clip-path)}.cls-3{fill:#62c6d6}
        </style>
        <clipPath id="clip-path">
            <path d="M0 0h45.11v45.7H0z" class="cls-1"/>
        </clipPath>
    </defs>
    <g id="Symbol_17_148" class="cls-2" data-name="Symbol 17 – 148">
        <path id="Pfad_159" d="M251.192 445.965a4.409 4.409 0 0 0-1.4-3.547c-2.378-1.941-7.111-.364-12.12 1.306-2.978.99-5.782 1.922-7.659 1.922s-4.664-.927-7.617-1.909c-3.418-1.137-6.674-2.22-9.152-2.22a4.538 4.538 0 0 0-3.032.919 4.358 4.358 0 0 0-1.382 3.511v22.58c0 8.79 6.233 15.942 13.9 15.942h14.567c7.663 0 13.9-7.152 13.9-15.942V446.02zm-1.571 20.607v2.136h-.009c-.088 7.523-5.578 13.614-12.321 13.614h-14.568c-6.744 0-12.234-6.092-12.321-13.615h-.018v-2.961h10.671v.825h.01v4.041c0 2.423 1.665 4.395 3.712 4.395h10.461c2.046 0 3.711-1.972 3.711-4.395V465.746h10.671zm-26.99-7.834a2.173 2.173 0 0 1 2.012-2.229l.133-.006h10.571a2.2 2.2 0 0 1 2.032 2.306v11.782a2.191 2.191 0 0 1-2.012 2.258l-.132.005H224.73l-.064-.005a2.207 2.207 0 0 1-2.032-2.321zm26.991 4.055v1.259H238.95v-5.3c0-2.423-1.665-4.394-3.711-4.394h-10.463c-2.047 0-3.712 1.971-3.712 4.394v4.044h-.009v1.259h-10.671v-2.961h.008V446.1a2.685 2.685 0 0 1 .246-1.326l.177-.379.34-.248c1.392-1.01 4.018-.611 10.8 1.65 3.084 1.027 5.984 1.994 8.05 1.994s4.965-.967 8.034-1.99c6.8-2.263 9.424-2.665 10.817-1.656l.34.248.178.38a2.7 2.7 0 0 1 .245 1.354z" class="cls-3" data-name="Pfad 159" transform="translate(-206.814 -439.517)"/>
    </g>
</svg>
