<svg xmlns="http://www.w3.org/2000/svg" width="32.844" height="23.157" viewBox="0 0 32.844 23.157">
  <g id="Group_675" data-name="Group 675" transform="translate(-55.738 -462.359)">
    <path id="Path_234" data-name="Path 234" d="M55.753,484.25v-3.828a5.941,5.941,0,0,0,1.227.844,9.41,9.41,0,0,0,1.508.632,11.87,11.87,0,0,0,1.594.4,8.464,8.464,0,0,0,1.468.141,6.255,6.255,0,0,0,3.492-.782,2.567,2.567,0,0,0,1.149-2.265,2.47,2.47,0,0,0-.383-1.383,4.01,4.01,0,0,0-1.07-1.07,11.327,11.327,0,0,0-1.617-.93q-.931-.445-1.993-.93-1.14-.609-2.125-1.234a9.116,9.116,0,0,1-1.711-1.383,5.78,5.78,0,0,1-1.14-1.711,5.553,5.553,0,0,1-.414-2.234,5.162,5.162,0,0,1,.711-2.743,5.99,5.99,0,0,1,1.875-1.921,8.6,8.6,0,0,1,2.648-1.125A12.563,12.563,0,0,1,64,462.359a12.238,12.238,0,0,1,5.125.8v3.672a8.189,8.189,0,0,0-4.906-1.375,8.886,8.886,0,0,0-1.648.156,4.936,4.936,0,0,0-1.469.516,3.18,3.18,0,0,0-1.055.922,2.258,2.258,0,0,0-.406,1.359,2.563,2.563,0,0,0,.313,1.3,3.322,3.322,0,0,0,.914,1,9.185,9.185,0,0,0,1.468.883q.867.43,2.008.93,1.171.609,2.211,1.281a10.478,10.478,0,0,1,1.828,1.484,6.53,6.53,0,0,1,1.25,1.8,5.306,5.306,0,0,1,.461,2.258,5.3,5.3,0,0,1-2.539,4.781,8.24,8.24,0,0,1-2.68,1.063,15.152,15.152,0,0,1-3.2.328c-.375,0-.836-.03-1.383-.086s-1.106-.141-1.679-.25a15.388,15.388,0,0,1-1.625-.4A5.137,5.137,0,0,1,55.753,484.25Z" fill="#50bbcc"/>
    <path id="Path_235" data-name="Path 235" d="M88.582,465.891H82.144v19.25H78.425v-19.25H72v-3.157H88.582Z" fill="#50bbcc"/>
  </g>
</svg>
