<svg xmlns="http://www.w3.org/2000/svg" width="40.156" height="23.156" viewBox="0 0 40.156 23.156">
  <g id="Group_674" data-name="Group 674" transform="translate(-106.08 -403.491)">
    <path id="Path_232" data-name="Path 232" d="M123.126,425.335a13.579,13.579,0,0,1-6.3,1.312,10.293,10.293,0,0,1-7.813-3.078,11.213,11.213,0,0,1-2.937-8.078,11.763,11.763,0,0,1,3.3-8.687,11.308,11.308,0,0,1,8.352-3.313,13.7,13.7,0,0,1,5.39.922V408.1a9.616,9.616,0,0,0-5-1.344,7.846,7.846,0,0,0-5.9,2.328,8.555,8.555,0,0,0-2.258,6.219,8.152,8.152,0,0,0,2.11,5.9,7.336,7.336,0,0,0,5.546,2.2,9.93,9.93,0,0,0,5.5-1.5Z" fill="#50bbcc"/>
    <path id="Path_233" data-name="Path 233" d="M127.376,426.272V403.866h6.469q12.39,0,12.391,10.922a10.761,10.761,0,0,1-3.438,8.336q-3.438,3.15-9.218,3.148Zm3.7-19.25v16.11h2.968a8.3,8.3,0,0,0,6.1-2.156,8.191,8.191,0,0,0,2.18-6.094q0-7.858-8.141-7.86Z" fill="#50bbcc"/>
  </g>
</svg>
