<svg xmlns="http://www.w3.org/2000/svg" width="44.783" height="45.7" viewBox="0 0 44.783 45.7">
    <defs>
        <style>
            .cls-1{fill:none}.cls-2{clip-path:url(#clip-path)}.cls-3{fill:#62c6d6}
        </style>
        <clipPath id="clip-path">
            <path d="M0 0h44.783v45.7H0z" class="cls-1"/>
        </clipPath>
    </defs>
    <g id="Symbol_16_234" class="cls-2" data-name="Symbol 16 – 234">
        <path id="Pfad_154" d="M135.774 421.637l.043-.106a27.713 27.713 0 0 1 1.454-2.768c2.314-4.068 5.507-9.679.438-16.3l-.024-.033a12.036 12.036 0 0 0-8.226-4.878 18.455 18.455 0 0 0-9.305 1.616l-.626.287-.625-.287a18.477 18.477 0 0 0-9.357-1.61 12.008 12.008 0 0 0-8.171 4.872c-5.1 6.659-1.9 12.269.431 16.365a27.233 27.233 0 0 1 1.435 2.741l.042.1a30.546 30.546 0 0 1 1.864 10.673c.236 4.855.667 7.835 4.66 7.835 4.219 0 7.6-6.914 7.861-16.081a1.855 1.855 0 0 1 3.709-.047l.023.19c.292 9.086 3.667 15.938 7.851 15.938 4 0 4.433-2.99 4.662-7.913a30.437 30.437 0 0 1 1.861-10.594zm-3.453 10.451c-.195 4.189-.3 6.458-3.068 6.458-2.817 0-6.012-5.566-6.264-14.558a.718.718 0 0 0-.023-.161l-.036-.2a3.44 3.44 0 0 0-6.859.353c-.256 9.008-3.45 14.564-6.264 14.564-2.766 0-2.872-2.269-3.065-6.388a31.89 31.89 0 0 0-2.021-11.23 27.438 27.438 0 0 0-1.508-2.9c-2.246-3.943-5.02-8.816-.594-14.6a10.434 10.434 0 0 1 7.16-4.293 13.759 13.759 0 0 1 4.517.239 23.44 23.44 0 0 1 5.932 2.182 30.25 30.25 0 0 1 4.072 2.522l.089.071a.8.8 0 1 0 1.042-1.214l-.1-.08a22.066 22.066 0 0 0-1.077-.775l-2.861-1.951 3.381-.753a13.77 13.77 0 0 1 4.467-.246 10.48 10.48 0 0 1 7.239 4.347c4.387 5.737 1.615 10.609-.612 14.524l-.017.031a27.146 27.146 0 0 0-1.543 2.978 31.722 31.722 0 0 0-1.987 11.08z" class="cls-3" data-name="Pfad 154" transform="translate(-97.653 -395.478)"/>
    </g>
</svg>
