<svg xmlns="http://www.w3.org/2000/svg" width="17.5" height="19.628" viewBox="0 0 17.5 19.628">
    <defs>
        <style>
            .cls-1{fill:none}.cls-2{clip-path:url(#clip-path)}.cls-3{fill:#62c6d6}
        </style>
        <clipPath id="clip-path">
            <path d="M0 0h17.5v19.628H0z" class="cls-1"/>
        </clipPath>
    </defs>
    <g id="Komponente" class="cls-2">
        <path id="Pfad_236" d="M48.481 332.517h-.6V329.9a.467.467 0 0 0-.439-.491H45.8v-2.616a.468.468 0 0 0-.439-.492h-9a.468.468 0 0 0-.438.492v2.616h-1.641a.467.467 0 0 0-.439.491v2.617h-.6a1.207 1.207 0 0 0-1.131 1.269v8.545a1.207 1.207 0 0 0 1.131 1.269h2.678v1.839a.468.468 0 0 0 .438.492h9a.468.468 0 0 0 .439-.492V343.6h2.678a1.207 1.207 0 0 0 1.131-1.269v-8.545a1.207 1.207 0 0 0-1.126-1.269zm-3.555 6.422v6.008H36.8v-6.008zm.877 0h.6a.64.64 0 0 1 .6.673v3H45.8zm2.933 3.392a.271.271 0 0 1-.254.285h-.6v-3a1.577 1.577 0 0 0-1.477-1.657H35.321a1.576 1.576 0 0 0-1.477 1.657v3h-.6a.272.272 0 0 1-.255-.285v-5.723h15.746zm-14.016-2.718a.64.64 0 0 1 .6-.673h.6v3.677h-1.2zm0-7.1v-2.124h1.2v2.124zm2.078 0v-5.231h8.128v5.231zm9 0v-2.124H47v2.124zm-12.814 1.269a.272.272 0 0 1 .255-.286h15.242a.272.272 0 0 1 .254.286v1.839H32.988z" class="cls-3" data-name="Pfad 236" transform="translate(-32.112 -326.302)"/>
        <path id="Pfad_237" d="M36.429 345.7a.438.438 0 1 0 .438.438.438.438 0 0 0-.438-.438z" class="cls-3" data-name="Pfad 237" transform="translate(-34.491 -337.897)"/>
        <path id="Pfad_238" d="M40.308 345.7a.438.438 0 1 0 .438.438.438.438 0 0 0-.438-.438z" class="cls-3" data-name="Pfad 238" transform="translate(-36.599 -337.897)"/>
        <path id="Pfad_239" d="M44.187 345.7a.438.438 0 1 0 .438.438.438.438 0 0 0-.438-.438z" class="cls-3" data-name="Pfad 239" transform="translate(-38.708 -337.897)"/>
    </g>
</svg>
