<svg xmlns="http://www.w3.org/2000/svg" width="15.975" height="15.977" viewBox="0 0 15.975 15.977">
    <defs>
        <style>
            .cls-1{fill:none}.cls-2{clip-path:url(#clip-path)}.cls-3{fill:#62c6d6;stroke:#62c6d6;stroke-width:.5px}
        </style>
        <clipPath id="clip-path">
            <path d="M0 0h15.975v15.977H0z" class="cls-1"/>
        </clipPath>
    </defs>
    <g id="Komponente_3" class="cls-2" data-name="Komponente 3">
        <path id="Pfad_198" d="M74.109 281.421a7.583 7.583 0 0 0-.33-2.489.339.339 0 0 0-.316-.24l-2.171-.055a.306.306 0 0 1-.261-.451l1.032-1.908a.337.337 0 0 0-.051-.392 7.681 7.681 0 0 0-1.993-1.53.335.335 0 0 0-.392.053l-1.574 1.5a.306.306 0 0 1-.5-.134l-.621-2.08a.338.338 0 0 0-.314-.242 7.661 7.661 0 0 0-2.491.331.338.338 0 0 0-.239.315l-.056 2.171a.306.306 0 0 1-.451.261l-1.911-1.032a.336.336 0 0 0-.391.05 7.715 7.715 0 0 0-1.527 2 .337.337 0 0 0 .054.392l1.5 1.573a.306.306 0 0 1-.134.5l-2.08.62a.336.336 0 0 0-.241.313 7.591 7.591 0 0 0 .331 2.492.339.339 0 0 0 .316.239l2.17.055a.306.306 0 0 1 .261.451l-1.032 1.91a.336.336 0 0 0 .051.392 7.743 7.743 0 0 0 1.993 1.53.338.338 0 0 0 .393-.053l1.574-1.5a.3.3 0 0 1 .211-.084.292.292 0 0 1 .079.01.3.3 0 0 1 .214.208l.621 2.08a.339.339 0 0 0 .314.242h.232a7.828 7.828 0 0 0 2.259-.335.337.337 0 0 0 .24-.314l.057-2.173a.306.306 0 0 1 .451-.261l1.91 1.034a.339.339 0 0 0 .393-.051 7.722 7.722 0 0 0 1.525-2 .335.335 0 0 0-.053-.391l-1.5-1.574a.306.306 0 0 1 .135-.5l2.08-.62a.336.336 0 0 0 .233-.313zm-.892-.195l-1.984.591a.336.336 0 0 0-.235.261 4.707 4.707 0 0 1-.171.631.335.335 0 0 0 .075.342l1.426 1.5a.306.306 0 0 1 .038.372 7.015 7.015 0 0 1-.813 1.064.3.3 0 0 1-.37.061l-1.821-.986a.335.335 0 0 0-.354.019 4.613 4.613 0 0 1-.565.328.336.336 0 0 0-.187.294l-.054 2.068a.306.306 0 0 1-.237.29c-.217.051-.439.089-.659.12s-.445.049-.669.057h-.011a.305.305 0 0 1-.293-.219l-.591-1.982a.341.341 0 0 0-.261-.236 4.35 4.35 0 0 1-.627-.169.326.326 0 0 0-.113-.02.334.334 0 0 0-.231.095l-1.5 1.428a.307.307 0 0 1-.373.038 7.124 7.124 0 0 1-1.062-.815.307.307 0 0 1-.061-.369l.984-1.821a.336.336 0 0 0-.018-.354 4.341 4.341 0 0 1-.329-.561.335.335 0 0 0-.3-.191l-2.069-.053a.305.305 0 0 1-.29-.237q-.076-.328-.12-.659a7.098 7.098 0 0 1-.056-.669.306.306 0 0 1 .218-.3l1.984-.591a.338.338 0 0 0 .235-.261 4.45 4.45 0 0 1 .169-.63.336.336 0 0 0-.075-.343l-1.425-1.5a.306.306 0 0 1-.038-.373 7.049 7.049 0 0 1 .817-1.064.307.307 0 0 1 .369-.061l1.821.984a.338.338 0 0 0 .349-.017 4.5 4.5 0 0 1 .566-.327.337.337 0 0 0 .19-.3l.053-2.069a.305.305 0 0 1 .237-.29q.328-.076.659-.121c.221-.029.445-.048.669-.056a.293.293 0 0 1 .3.218l.591 1.984a.339.339 0 0 0 .262.236 4.6 4.6 0 0 1 .631.17.335.335 0 0 0 .342-.075l1.5-1.426a.3.3 0 0 1 .372-.038 7.072 7.072 0 0 1 1.062.814.306.306 0 0 1 .061.369l-.985 1.82a.335.335 0 0 0 .017.35 4.606 4.606 0 0 1 .327.565.339.339 0 0 0 .3.191l2.069.053a.305.305 0 0 1 .29.235 6.8 6.8 0 0 1 .177 1.331.306.306 0 0 1-.213.305z" class="cls-3" data-name="Pfad 198" transform="translate(-58.389 -273.194)"/>
        <path id="Pfad_199" d="M71.361 284.062a1.8 1.8 0 0 0-1.775-1.558 1.8 1.8 0 0 0 0 3.59 1.852 1.852 0 0 0 .241-.016 1.8 1.8 0 0 0 1.534-2.016zm-1.78 1.48a1.243 1.243 0 0 1 0-2.485h.006a1.238 1.238 0 0 1 1.226 1.08 1.244 1.244 0 0 1-1.232 1.405z" class="cls-3" data-name="Pfad 199" transform="translate(-61.349 -276.107)"/>
    </g>
</svg>
